<svg xmlns="http://www.w3.org/2000/svg" viewBox="0 0 256 256" fill="#ffffff" id="Patreon-Logo-Fill--Streamline-Phosphor-Fill">
  <desc>
    Patreon Logo Fill Streamline Icon: https://streamlinehq.com
  </desc>
  <path d="M239.5047 82.8995c0 47.6208 -34.4844 60.943 -62.1974 71.6286 -9.7681 3.7632 -18.9902 7.3174 -25.7965 11.9401 -13.2293 8.9666 -21.592 25.2971 -29.6759 41.0932 -11.5452 22.556 -23.4968 45.8786 -50.1412 45.8786 -14.9948 0 -28.5841 -13.5197 -39.3162 -39.0955s-16.6208 -59.2356 -15.8078 -89.9569c1.2544 -47.2142 16.9344 -72.8017 29.8501 -85.9497C63.784 20.7834 87.3505 9.0524 114.5756 4.5226c25.3087 -4.2045 51.2679 -1.6028 73.0921 7.3174 32.9397 13.4848 51.837 39.3859 51.837 71.0595Z" stroke-width="1"></path>
</svg>